<svg aria-hidden="true" style="position: absolute; width: 0; height: 0; overflow: hidden;" version="1.1" xmlns="http://www.w3.org/2000/svg" xmlns:xlink="http://www.w3.org/1999/xlink">
<defs>
<symbol id="icon-Logo-7" viewBox="0 0 57 32">
<path  fill="#afb1b8" style="fill: var(--color1, #afb1b8)" d="M12.875 11.253v0c1.28 0 2.315 0.923 2.315 2.059v0c0 1.136-1.035 2.059-2.315 2.059v0c-1.28 0-2.315-0.923-2.315-2.059v0c0-1.136 1.035-2.059 2.315-2.059z"></path>
<path fill="#afb1b8" style="fill: var(--color1, #afb1b8)" d="M29.968 10.592c-0.005-1.579-0.709-3.088-1.968-4.208-1.253-1.115-2.955-1.744-4.736-1.749v0c-1.776 0.005-3.477 0.635-4.736 1.749-1.253 1.12-1.963 2.629-1.968 4.208v8.709c0 0 13.408-1.328 13.408-8.704v-0.005z"></path>
<path  fill="#afb1b8" style="fill: var(--color1, #afb1b8)" d="M5.867 22.155c0 1.099 0.491 2.155 1.365 2.928 0.875 0.779 2.059 1.216 3.296 1.221 1.237-0.005 2.421-0.443 3.291-1.216 0.875-0.779 1.371-1.829 1.371-2.928v-6.059c0 0-9.323 0.923-9.323 6.053zM10.528 23.243c-0.24 0-0.48-0.064-0.677-0.181-0.203-0.123-0.357-0.288-0.453-0.491-0.091-0.197-0.112-0.416-0.069-0.624 0.048-0.213 0.165-0.405 0.336-0.555 0.171-0.155 0.389-0.256 0.624-0.299 0.24-0.043 0.485-0.021 0.709 0.059 0.219 0.085 0.411 0.224 0.544 0.4 0.133 0.181 0.208 0.389 0.208 0.603 0 0.144-0.032 0.288-0.091 0.421-0.064 0.128-0.155 0.251-0.267 0.352s-0.245 0.181-0.395 0.235c-0.149 0.053-0.309 0.085-0.469 0.085v-0.005z"></path>
<path  fill="#afb1b8" style="fill: var(--color1, #afb1b8)" d="M22.085 23.077q0.123-0.251 0.123-0.587v-0.101q0-0.336-0.123-0.592-0.091-0.192-0.24-0.32-0.048-0.037-0.101-0.075-0.048-0.027-0.096-0.048-0.187-0.085-0.411-0.085t-0.411 0.085q-0.048 0.021-0.096 0.048-0.053 0.037-0.101 0.075-0.149 0.128-0.24 0.32-0.123 0.256-0.123 0.592v0.112q0.005 0.325 0.128 0.581 0.085 0.181 0.229 0.304 0.053 0.048 0.112 0.085 0.048 0.027 0.101 0.053 0.181 0.080 0.405 0.080 0.229 0 0.416-0.091 0.048-0.021 0.091-0.048 0.059-0.037 0.117-0.085 0.133-0.123 0.219-0.304zM23.685 22.832q0.043 0.059 0.043 0.144 0 0.069-0.032 0.123-0.021 0.037-0.064 0.069-0.091 0.069-0.261 0.069-0.261 0-0.373-0.133-0.075-0.091-0.075-0.245h-0.469q0 0.165 0.064 0.299 0.021 0.048 0.048 0.091 0 0 0.005 0.005 0.112 0.16 0.325 0.256t0.475 0.096q0.379 0 0.603-0.165 0.096-0.075 0.149-0.171 0.075-0.128 0.075-0.293 0-0.149-0.059-0.272-0.043-0.096-0.123-0.171-0.187-0.181-0.587-0.299-0.213-0.069-0.325-0.144-0.080-0.053-0.101-0.123-0.011-0.032-0.011-0.064 0-0.059 0.021-0.101 0.027-0.053 0.075-0.091 0.096-0.069 0.267-0.069 0.176 0 0.277 0.085 0.021 0.021 0.043 0.048 0.053 0.080 0.053 0.197h0.469q0-0.144-0.048-0.261-0.027-0.053-0.059-0.107-0.021-0.032-0.048-0.064-0.096-0.117-0.245-0.187-0.192-0.085-0.437-0.085-0.24 0-0.437 0.080-0.192 0.080-0.299 0.224-0.043 0.059-0.064 0.128-0.037 0.096-0.037 0.203t0.032 0.203q0.085 0.213 0.357 0.363 0.139 0.075 0.384 0.155t0.336 0.149q0.032 0.027 0.053 0.059zM41.989 22.832q0.043 0.059 0.043 0.144 0 0.069-0.032 0.123-0.021 0.037-0.064 0.069-0.096 0.069-0.261 0.069-0.261 0-0.373-0.133-0.075-0.091-0.075-0.245h-0.469q0 0.165 0.059 0.299 0.021 0.048 0.053 0.091 0 0 0.005 0.005 0.112 0.16 0.32 0.256 0.219 0.096 0.48 0.096 0.379 0 0.603-0.165 0.096-0.075 0.149-0.171 0.075-0.128 0.075-0.293 0-0.149-0.059-0.272-0.048-0.096-0.123-0.171-0.187-0.181-0.587-0.299-0.213-0.069-0.325-0.144-0.080-0.053-0.107-0.123-0.005-0.032-0.005-0.064 0-0.059 0.021-0.101 0.021-0.053 0.075-0.091 0.091-0.069 0.267-0.069t0.272 0.085q0.027 0.021 0.048 0.048 0.053 0.080 0.053 0.197h0.469q0-0.144-0.053-0.261-0.021-0.053-0.053-0.107-0.021-0.032-0.048-0.064-0.096-0.117-0.245-0.187-0.192-0.085-0.437-0.085-0.24 0-0.437 0.080-0.192 0.080-0.299 0.224-0.043 0.059-0.064 0.128-0.037 0.096-0.037 0.203t0.032 0.203q0.085 0.213 0.352 0.363 0.144 0.075 0.389 0.155 0.24 0.080 0.336 0.149 0.032 0.027 0.053 0.059zM19.056 22.645h0.896v-0.379h-0.896v-0.587h1.008v-0.379h-1.477v2.272h0.469v-0.928zM25.531 21.68h0.699v-0.379h-1.856v0.379h0.688v1.893h0.469v-1.893zM26.965 22.587h0.896v-0.368h-0.896v-0.539h1.051v-0.379h-1.52v2.272h1.525v-0.373h-1.056v-0.613zM28.763 22.741h0.373l0.427 0.832h0.501v-0.021l-0.491-0.928q0.203-0.091 0.304-0.251 0.101-0.155 0.101-0.384t-0.107-0.389q-0.043-0.064-0.112-0.123-0.219-0.176-0.619-0.176h-0.848v2.272h0.469v-0.832zM31.6 23.573v-0.8h0.411q0.405 0 0.635-0.192 0.080-0.069 0.133-0.155 0.096-0.155 0.096-0.373 0-0.176-0.064-0.32-0.016-0.037-0.037-0.075-0.032-0.048-0.075-0.096-0.091-0.101-0.229-0.171-0.192-0.091-0.448-0.091h-0.891v2.272h0.469zM33.664 22.587h0.901v-0.368h-0.901v-0.539h1.056v-0.379h-1.525v2.272h1.525v-0.373h-1.056v-0.613zM36.043 21.68h0.699v-0.379h-1.856v0.379h0.688v1.893h0.469v-1.893zM37.477 22.587h0.901v-0.368h-0.901v-0.539h1.051v-0.379h-1.52v2.272h1.525v-0.373h-1.056v-0.613zM39.275 22.741h0.373l0.427 0.832h0.507v-0.021l-0.496-0.928q0.208-0.091 0.309-0.251 0.101-0.155 0.101-0.384t-0.107-0.389q-0.048-0.064-0.112-0.123-0.219-0.176-0.624-0.176h-0.843v2.272h0.464v-0.832zM21.605 21.84q0.128 0.187 0.128 0.544v0.112q-0.005 0.357-0.128 0.539-0.059 0.085-0.133 0.128-0.101 0.059-0.229 0.059-0.133 0-0.229-0.059-0.085-0.048-0.139-0.133-0.128-0.192-0.128-0.539v-0.112q0-0.357 0.128-0.539 0.053-0.080 0.133-0.128 0.096-0.059 0.229-0.059t0.229 0.059q0.080 0.048 0.139 0.128zM29.141 22.363h-0.379v-0.683h0.379q0.187 0 0.277 0.091 0.016 0.016 0.027 0.032 0.064 0.085 0.064 0.224 0 0.117-0.053 0.197-0.021 0.027-0.043 0.048 0 0-0.005 0.005-0.096 0.085-0.267 0.085zM32.021 22.395h-0.421v-0.715h0.432q0.139 0 0.229 0.069 0.021 0.016 0.043 0.037t0.037 0.048q0.059 0.091 0.059 0.219 0 0.133-0.059 0.213-0.016 0.021-0.037 0.037-0.096 0.091-0.283 0.091zM39.653 22.363h-0.379v-0.683h0.379q0.187 0 0.283 0.091 0.011 0.016 0.021 0.032 0.069 0.085 0.069 0.224 0 0.117-0.059 0.197-0.016 0.027-0.037 0.048-0.005 0-0.005 0.005-0.096 0.085-0.272 0.085z"></path>
</symbol>
</defs>
</svg>
