<svg aria-hidden="true" style="position: absolute; width: 0; height: 0; overflow: hidden;" version="1.1" xmlns="http://www.w3.org/2000/svg" xmlns:xlink="http://www.w3.org/1999/xlink">
<defs>
<symbol id="icon-Client-5" viewBox="0 0 59 32">
<path fill="#afb1b8" style="fill: var(--color1, #afb1b8)" d="M20.435 21.123c0.087 0.097 0.132 0.216 0.129 0.341 0.003 0.080-0.010 0.16-0.045 0.233-0.035 0.077-0.087 0.143-0.153 0.195-0.163 0.115-0.369 0.17-0.574 0.157h-1.009v-2.153h0.988c0.195-0.010 0.39 0.038 0.546 0.143 0.066 0.049 0.115 0.111 0.15 0.181s0.049 0.146 0.045 0.223c0.003 0.118-0.035 0.237-0.115 0.33-0.077 0.083-0.184 0.143-0.303 0.167 0.136 0.024 0.254 0.087 0.341 0.184zM19.252 20.8h0.421c0.097 0.003 0.191-0.021 0.268-0.073 0.035-0.028 0.059-0.059 0.073-0.094 0.017-0.038 0.024-0.077 0.021-0.118 0-0.038-0.003-0.077-0.021-0.111-0.014-0.038-0.038-0.070-0.070-0.097-0.080-0.056-0.177-0.080-0.278-0.073h-0.414v0.567zM19.983 21.624c0.035-0.028 0.063-0.059 0.080-0.097s0.024-0.080 0.021-0.122c0.003-0.042-0.003-0.083-0.024-0.122-0.017-0.038-0.042-0.073-0.077-0.097-0.083-0.059-0.184-0.087-0.289-0.080h-0.442v0.591h0.449c0.101 0.007 0.202-0.021 0.282-0.073z"></path>
<path fill="#afb1b8" style="fill: var(--color1, #afb1b8)" d="M22.459 22.049l-0.553-0.842h-0.205v0.842h-0.473v-2.153h0.894c0.226-0.014 0.452 0.052 0.626 0.184 0.125 0.115 0.202 0.271 0.212 0.435 0.014 0.163-0.038 0.323-0.146 0.456-0.111 0.115-0.261 0.191-0.428 0.219l0.588 0.859h-0.515zM21.701 20.915h0.386c0.271 0 0.403-0.108 0.403-0.327 0.003-0.045-0.003-0.087-0.021-0.129s-0.042-0.080-0.077-0.115c-0.087-0.063-0.195-0.094-0.306-0.087h-0.39l0.003 0.657z"></path>
<path fill="#afb1b8" style="fill: var(--color1, #afb1b8)" d="M25.047 21.617h-0.946l-0.167 0.431h-0.494l0.866-2.129h0.536l0.863 2.129h-0.497l-0.16-0.431zM24.918 21.29l-0.344-0.911-0.344 0.911h0.689z"></path>
<path fill="#afb1b8" style="fill: var(--color1, #afb1b8)" d="M28.285 22.049h-0.47l-1.054-1.464v1.464h-0.47v-2.153h0.47l1.054 1.471v-1.471h0.47v2.153z"></path>
<path fill="#afb1b8" style="fill: var(--color1, #afb1b8)" d="M30.967 21.534c-0.097 0.163-0.247 0.296-0.424 0.379-0.205 0.094-0.435 0.143-0.661 0.136h-0.838v-2.153h0.838c0.226-0.007 0.456 0.042 0.661 0.132 0.177 0.083 0.327 0.216 0.424 0.376 0.097 0.174 0.146 0.369 0.146 0.567 0 0.195-0.049 0.39-0.146 0.563zM30.428 21.482c0.136-0.143 0.209-0.323 0.209-0.515 0-0.188-0.073-0.369-0.209-0.511-0.16-0.132-0.372-0.198-0.588-0.184h-0.327v1.395h0.327c0.216 0.010 0.428-0.056 0.588-0.184z"></path>
<path fill="#afb1b8" style="fill: var(--color1, #afb1b8)" d="M25.339 7.917c0 0 6.066 2.097 5.937 5.13v5.134c0 0-6.063-2.097-5.934-5.134l-0.003-5.13z"></path>
<path fill="#afb1b8" style="fill: var(--color1, #afb1b8)" d="M36.682 16.977c1.144-0.72 2.47-1.169 3.854-1.301v-1.603c-1.597 0.56-2.946 1.579-3.854 2.904z"></path>
<path fill="#afb1b8" style="fill: var(--color1, #afb1b8)" d="M35.993 17.461c0.936-1.729 2.563-3.061 4.543-3.725v-4.63c0 0-8.64 2.988-8.456 7.308v7.308c0 0 0.383-0.136 0.988-0.386 0-0.233 0-0.47 0.028-0.706 0.181-2.007 1.221-3.864 2.897-5.169z"></path>
<path fill="#afb1b8" style="fill: var(--color1, #afb1b8)" d="M35.172 20.177c0.045-0.508 0.146-1.009 0.299-1.496-1.043 1.123-1.673 2.522-1.805 3.993-0.014 0.136-0.021 0.275-0.024 0.421 0.494-0.216 1.064-0.487 1.663-0.803-0.153-0.696-0.198-1.409-0.132-2.115z"></path>
<path fill="#afb1b8" style="fill: var(--color1, #afb1b8)" d="M35.513 20.202c-0.056 0.64-0.021 1.287 0.108 1.917 2.362-1.294 5.012-3.29 4.911-5.704v-0.212c-1.687 0.174-3.266 0.849-4.49 1.923-0.289 0.664-0.466 1.363-0.529 2.077z"></path>
</symbol>
<symbol id="icon-Logo-4" viewBox="0 0 57 32">
<path   d="M12.875 11.253v0c1.28 0 2.315 0.923 2.315 2.059v0c0 1.136-1.035 2.059-2.315 2.059v0c-1.28 0-2.315-0.923-2.315-2.059v0c0-1.136 1.035-2.059 2.315-2.059z"></path>
<path  d="M29.968 10.592c-0.005-1.579-0.709-3.088-1.968-4.208-1.253-1.115-2.955-1.744-4.736-1.749v0c-1.776 0.005-3.477 0.635-4.736 1.749-1.253 1.12-1.963 2.629-1.968 4.208v8.709c0 0 13.408-1.328 13.408-8.704v-0.005z"></path>
<path  d="M5.867 22.155c0 1.099 0.491 2.155 1.365 2.928 0.875 0.779 2.059 1.216 3.296 1.221 1.237-0.005 2.421-0.443 3.291-1.216 0.875-0.779 1.371-1.829 1.371-2.928v-6.059c0 0-9.323 0.923-9.323 6.053zM10.528 23.243c-0.24 0-0.48-0.064-0.677-0.181-0.203-0.123-0.357-0.288-0.453-0.491-0.091-0.197-0.112-0.416-0.069-0.624 0.048-0.213 0.165-0.405 0.336-0.555 0.171-0.155 0.389-0.256 0.624-0.299 0.24-0.043 0.485-0.021 0.709 0.059 0.219 0.085 0.411 0.224 0.544 0.4 0.133 0.181 0.208 0.389 0.208 0.603 0 0.144-0.032 0.288-0.091 0.421-0.064 0.128-0.155 0.251-0.267 0.352s-0.245 0.181-0.395 0.235c-0.149 0.053-0.309 0.085-0.469 0.085v-0.005z"></path>
<path  d="M22.085 23.077q0.123-0.251 0.123-0.587v-0.101q0-0.336-0.123-0.592-0.091-0.192-0.24-0.32-0.048-0.037-0.101-0.075-0.048-0.027-0.096-0.048-0.187-0.085-0.411-0.085t-0.411 0.085q-0.048 0.021-0.096 0.048-0.053 0.037-0.101 0.075-0.149 0.128-0.24 0.32-0.123 0.256-0.123 0.592v0.112q0.005 0.325 0.128 0.581 0.085 0.181 0.229 0.304 0.053 0.048 0.112 0.085 0.048 0.027 0.101 0.053 0.181 0.080 0.405 0.080 0.229 0 0.416-0.091 0.048-0.021 0.091-0.048 0.059-0.037 0.117-0.085 0.133-0.123 0.219-0.304zM23.685 22.832q0.043 0.059 0.043 0.144 0 0.069-0.032 0.123-0.021 0.037-0.064 0.069-0.091 0.069-0.261 0.069-0.261 0-0.373-0.133-0.075-0.091-0.075-0.245h-0.469q0 0.165 0.064 0.299 0.021 0.048 0.048 0.091 0 0 0.005 0.005 0.112 0.16 0.325 0.256t0.475 0.096q0.379 0 0.603-0.165 0.096-0.075 0.149-0.171 0.075-0.128 0.075-0.293 0-0.149-0.059-0.272-0.043-0.096-0.123-0.171-0.187-0.181-0.587-0.299-0.213-0.069-0.325-0.144-0.080-0.053-0.101-0.123-0.011-0.032-0.011-0.064 0-0.059 0.021-0.101 0.027-0.053 0.075-0.091 0.096-0.069 0.267-0.069 0.176 0 0.277 0.085 0.021 0.021 0.043 0.048 0.053 0.080 0.053 0.197h0.469q0-0.144-0.048-0.261-0.027-0.053-0.059-0.107-0.021-0.032-0.048-0.064-0.096-0.117-0.245-0.187-0.192-0.085-0.437-0.085-0.24 0-0.437 0.080-0.192 0.080-0.299 0.224-0.043 0.059-0.064 0.128-0.037 0.096-0.037 0.203t0.032 0.203q0.085 0.213 0.357 0.363 0.139 0.075 0.384 0.155t0.336 0.149q0.032 0.027 0.053 0.059zM41.989 22.832q0.043 0.059 0.043 0.144 0 0.069-0.032 0.123-0.021 0.037-0.064 0.069-0.096 0.069-0.261 0.069-0.261 0-0.373-0.133-0.075-0.091-0.075-0.245h-0.469q0 0.165 0.059 0.299 0.021 0.048 0.053 0.091 0 0 0.005 0.005 0.112 0.16 0.32 0.256 0.219 0.096 0.48 0.096 0.379 0 0.603-0.165 0.096-0.075 0.149-0.171 0.075-0.128 0.075-0.293 0-0.149-0.059-0.272-0.048-0.096-0.123-0.171-0.187-0.181-0.587-0.299-0.213-0.069-0.325-0.144-0.080-0.053-0.107-0.123-0.005-0.032-0.005-0.064 0-0.059 0.021-0.101 0.021-0.053 0.075-0.091 0.091-0.069 0.267-0.069t0.272 0.085q0.027 0.021 0.048 0.048 0.053 0.080 0.053 0.197h0.469q0-0.144-0.053-0.261-0.021-0.053-0.053-0.107-0.021-0.032-0.048-0.064-0.096-0.117-0.245-0.187-0.192-0.085-0.437-0.085-0.24 0-0.437 0.080-0.192 0.080-0.299 0.224-0.043 0.059-0.064 0.128-0.037 0.096-0.037 0.203t0.032 0.203q0.085 0.213 0.352 0.363 0.144 0.075 0.389 0.155 0.24 0.080 0.336 0.149 0.032 0.027 0.053 0.059zM19.056 22.645h0.896v-0.379h-0.896v-0.587h1.008v-0.379h-1.477v2.272h0.469v-0.928zM25.531 21.68h0.699v-0.379h-1.856v0.379h0.688v1.893h0.469v-1.893zM26.965 22.587h0.896v-0.368h-0.896v-0.539h1.051v-0.379h-1.52v2.272h1.525v-0.373h-1.056v-0.613zM28.763 22.741h0.373l0.427 0.832h0.501v-0.021l-0.491-0.928q0.203-0.091 0.304-0.251 0.101-0.155 0.101-0.384t-0.107-0.389q-0.043-0.064-0.112-0.123-0.219-0.176-0.619-0.176h-0.848v2.272h0.469v-0.832zM31.6 23.573v-0.8h0.411q0.405 0 0.635-0.192 0.080-0.069 0.133-0.155 0.096-0.155 0.096-0.373 0-0.176-0.064-0.32-0.016-0.037-0.037-0.075-0.032-0.048-0.075-0.096-0.091-0.101-0.229-0.171-0.192-0.091-0.448-0.091h-0.891v2.272h0.469zM33.664 22.587h0.901v-0.368h-0.901v-0.539h1.056v-0.379h-1.525v2.272h1.525v-0.373h-1.056v-0.613zM36.043 21.68h0.699v-0.379h-1.856v0.379h0.688v1.893h0.469v-1.893zM37.477 22.587h0.901v-0.368h-0.901v-0.539h1.051v-0.379h-1.52v2.272h1.525v-0.373h-1.056v-0.613zM39.275 22.741h0.373l0.427 0.832h0.507v-0.021l-0.496-0.928q0.208-0.091 0.309-0.251 0.101-0.155 0.101-0.384t-0.107-0.389q-0.048-0.064-0.112-0.123-0.219-0.176-0.624-0.176h-0.843v2.272h0.464v-0.832zM21.605 21.84q0.128 0.187 0.128 0.544v0.112q-0.005 0.357-0.128 0.539-0.059 0.085-0.133 0.128-0.101 0.059-0.229 0.059-0.133 0-0.229-0.059-0.085-0.048-0.139-0.133-0.128-0.192-0.128-0.539v-0.112q0-0.357 0.128-0.539 0.053-0.080 0.133-0.128 0.096-0.059 0.229-0.059t0.229 0.059q0.080 0.048 0.139 0.128zM29.141 22.363h-0.379v-0.683h0.379q0.187 0 0.277 0.091 0.016 0.016 0.027 0.032 0.064 0.085 0.064 0.224 0 0.117-0.053 0.197-0.021 0.027-0.043 0.048 0 0-0.005 0.005-0.096 0.085-0.267 0.085zM32.021 22.395h-0.421v-0.715h0.432q0.139 0 0.229 0.069 0.021 0.016 0.043 0.037t0.037 0.048q0.059 0.091 0.059 0.219 0 0.133-0.059 0.213-0.016 0.021-0.037 0.037-0.096 0.091-0.283 0.091zM39.653 22.363h-0.379v-0.683h0.379q0.187 0 0.283 0.091 0.011 0.016 0.021 0.032 0.069 0.085 0.069 0.224 0 0.117-0.059 0.197-0.016 0.027-0.037 0.048-0.005 0-0.005 0.005-0.096 0.085-0.272 0.085z"></path>
</symbol>
<symbol id="icon-Logo-1" viewBox="0 0 57 32">
<path fill="#afb1b8" style="fill: var(--color1, #afb1b8)" d="M28.491 14.613c-0.235-0.315-0.352-0.683-0.32-1.061v-1.536c0-0.469 0.107-0.827 0.32-1.072s0.581-0.368 1.099-0.368c0.491 0 0.837 0.107 1.045 0.315 0.224 0.267 0.331 0.592 0.304 0.917v0.363h-0.875v-0.368c0.005-0.117-0.005-0.24-0.027-0.357-0.011-0.080-0.053-0.155-0.123-0.213-0.091-0.059-0.203-0.091-0.315-0.080-0.123-0.011-0.24 0.021-0.336 0.085-0.075 0.064-0.128 0.144-0.144 0.235-0.027 0.128-0.037 0.251-0.037 0.379v1.867c-0.011 0.181 0.027 0.363 0.112 0.528 0.048 0.053 0.107 0.096 0.176 0.123s0.149 0.037 0.229 0.032c0.112 0.005 0.219-0.021 0.309-0.085 0.069-0.059 0.117-0.139 0.128-0.229 0.021-0.123 0.032-0.245 0.027-0.373v-0.379h0.875v0.347c0.027 0.341-0.080 0.683-0.299 0.965-0.203 0.229-0.544 0.347-1.051 0.347-0.501 0-0.885-0.123-1.099-0.379z"></path>
<path fill="#afb1b8" style="fill: var(--color1, #afb1b8)" d="M32.133 14.629c-0.219-0.24-0.331-0.587-0.331-1.051v-1.616c0-0.453 0.112-0.8 0.331-1.035 0.224-0.235 0.592-0.352 1.109-0.352s0.885 0.117 1.104 0.352c0.219 0.235 0.336 0.581 0.336 1.035v1.616c0 0.459-0.117 0.811-0.341 1.051s-0.587 0.363-1.099 0.363c-0.507 0-0.885-0.123-1.109-0.363zM33.653 14.245c0.075-0.155 0.112-0.315 0.101-0.48v-1.984c0.011-0.16-0.021-0.32-0.101-0.469-0.043-0.053-0.107-0.101-0.181-0.128-0.069-0.027-0.149-0.037-0.229-0.027-0.080-0.011-0.16 0-0.229 0.027-0.075 0.032-0.139 0.075-0.181 0.128-0.080 0.149-0.117 0.309-0.107 0.469v1.995c-0.011 0.16 0.027 0.325 0.107 0.475 0.053 0.053 0.112 0.091 0.187 0.123 0.069 0.027 0.144 0.037 0.224 0.037 0.075 0 0.155-0.011 0.224-0.037 0.069-0.032 0.133-0.069 0.187-0.123v-0.005z"></path>
<path fill="#afb1b8" style="fill: var(--color1, #afb1b8)" d="M35.733 10.624h0.944l0.704 2.981 0.725-2.981h0.917l0.091 4.309h-0.677l-0.069-2.997-0.699 2.997h-0.544l-0.725-3.008-0.069 3.008h-0.683l0.085-4.309z"></path>
<path fill="#afb1b8" style="fill: var(--color1, #afb1b8)" d="M40.176 10.624h1.467c0.843 0 1.269 0.405 1.269 1.221 0 0.784-0.448 1.173-1.339 1.173h-0.501v1.915h-0.901l0.005-4.309zM41.429 12.464c0.085 0.011 0.176 0.005 0.267-0.021 0.085-0.021 0.165-0.064 0.229-0.112 0.107-0.149 0.149-0.32 0.128-0.491 0.005-0.128-0.005-0.261-0.043-0.389-0.011-0.043-0.032-0.085-0.064-0.117-0.032-0.037-0.069-0.064-0.117-0.085-0.123-0.053-0.261-0.080-0.4-0.069h-0.352v1.285h0.352z"></path>
<path fill="#afb1b8" style="fill: var(--color1, #afb1b8)" d="M44.213 10.624h0.976l0.997 4.309h-0.843l-0.197-0.997h-0.869l-0.203 0.997h-0.859l0.997-4.309zM45.045 13.44l-0.336-1.808-0.341 1.808h0.677z"></path>
<path fill="#afb1b8" style="fill: var(--color1, #afb1b8)" d="M46.992 10.624h0.635l1.216 2.459v-2.459h0.752v4.309h-0.603l-1.221-2.565v2.565h-0.779v-4.309z"></path>
<path fill="#afb1b8" style="fill: var(--color1, #afb1b8)" d="M51.355 13.291l-1.008-2.661h0.848l0.619 1.707 0.576-1.707h0.832l-0.997 2.661v1.643h-0.869v-1.643z"></path>
<path fill="#afb1b8" style="fill: var(--color1, #afb1b8)" d="M29.888 16.816v0.224h-0.736v1.749h-0.309v-1.749h-0.747v-0.224h1.792z"></path>
<path fill="#afb1b8" style="fill: var(--color1, #afb1b8)" d="M32.208 18.789h-0.24c-0.027 0-0.048-0.005-0.069-0.016-0.016-0.016-0.032-0.032-0.037-0.048l-0.213-0.469h-1.024l-0.219 0.469c-0.005 0.021-0.016 0.037-0.032 0.053s-0.043 0.021-0.064 0.021h-0.24l0.907-1.979h0.315l0.917 1.968zM30.704 18.059h0.859l-0.363-0.805c-0.027-0.064-0.048-0.123-0.069-0.187-0.011 0.037-0.021 0.075-0.032 0.107l-0.032 0.080-0.363 0.805z"></path>
<path fill="#afb1b8" style="fill: var(--color1, #afb1b8)" d="M33.771 18.597c0.053 0 0.112 0 0.171 0 0.048-0.005 0.096-0.016 0.144-0.027 0.043-0.005 0.085-0.021 0.128-0.032 0.043-0.016 0.080-0.032 0.123-0.053v-0.443h-0.363c-0.011 0-0.016 0-0.027 0-0.011-0.005-0.016-0.011-0.021-0.016s-0.011-0.011-0.016-0.016c0-0.005-0.005-0.011-0.005-0.016v-0.155h0.704v0.757c-0.059 0.037-0.117 0.069-0.181 0.096s-0.128 0.048-0.197 0.064c-0.075 0.021-0.155 0.032-0.229 0.043-0.085 0.005-0.176 0.011-0.261 0.011-0.16 0-0.315-0.021-0.459-0.075-0.139-0.043-0.261-0.117-0.363-0.203-0.101-0.091-0.181-0.197-0.235-0.315-0.059-0.133-0.085-0.272-0.085-0.411s0.027-0.277 0.085-0.411c0.053-0.117 0.128-0.224 0.235-0.315 0.101-0.091 0.224-0.16 0.363-0.203 0.155-0.053 0.32-0.075 0.485-0.075 0.080 0 0.165 0.005 0.251 0.016 0.075 0.011 0.144 0.027 0.213 0.053 0.064 0.016 0.128 0.043 0.181 0.075 0.059 0.032 0.112 0.064 0.16 0.107l-0.091 0.117c-0.005 0.011-0.016 0.021-0.027 0.027-0.011 0.011-0.027 0.011-0.043 0.011-0.021 0-0.037-0.005-0.053-0.011-0.027-0.016-0.059-0.032-0.091-0.048-0.037-0.021-0.080-0.043-0.123-0.053-0.053-0.021-0.107-0.037-0.165-0.043-0.075-0.016-0.155-0.021-0.229-0.021-0.123 0-0.24 0.021-0.352 0.059-0.101 0.032-0.192 0.085-0.267 0.155s-0.128 0.155-0.165 0.245c-0.080 0.213-0.080 0.443 0 0.656 0.037 0.096 0.101 0.181 0.181 0.251 0.075 0.069 0.165 0.123 0.261 0.155 0.117 0.037 0.24 0.048 0.363 0.043z"></path>
<path fill="#afb1b8" style="fill: var(--color1, #afb1b8)" d="M36.656 18.565h0.992v0.224h-1.296v-1.973h0.309l-0.005 1.749z"></path>
<path fill="#afb1b8" style="fill: var(--color1, #afb1b8)" d="M38.677 18.789h-0.315v-1.973h0.315v1.973z"></path>
<path fill="#afb1b8" style="fill: var(--color1, #afb1b8)" d="M39.829 16.821c0.016 0.011 0.032 0.021 0.043 0.037l1.328 1.488c-0.005-0.021-0.005-0.043 0-0.069 0-0.021 0-0.043 0-0.064v-1.408h0.267v1.984h-0.155c-0.021 0-0.043 0-0.064-0.011s-0.037-0.021-0.053-0.037l-1.323-1.488c0 0.021 0 0.048 0 0.069s0 0.043 0 0.059v1.408h-0.256v-1.973h0.16c0.016 0 0.037 0 0.053 0.005z"></path>
<path fill="#afb1b8" style="fill: var(--color1, #afb1b8)" d="M43.749 16.816v0.213h-1.099v0.656h0.891v0.208h-0.891v0.672h1.099v0.219h-1.419v-1.968h1.419z"></path>
<path fill="#afb1b8" style="fill: var(--color1, #afb1b8)" d="M11.285 4.613l13.755 3.371v11.819l-13.755-3.371v-11.819zM10.4 3.605v13.403l15.52 3.803v-13.397l-15.52-3.808z"></path>
<path fill="#afb1b8" style="fill: var(--color1, #afb1b8)" d="M18.72 27.035l-15.52-3.808v-13.403l15.52 3.808v13.403z"></path>
<path fill="#afb1b8" style="fill: var(--color1, #afb1b8)" d="M10.656 4.464l13.579 3.328-5.771 4.987-13.584-3.333 5.776-4.981zM10.4 3.605l-7.2 6.219 15.52 3.808 7.2-6.219-15.52-3.808z"></path>
<path fill="#afb1b8" style="fill: var(--color1, #afb1b8)" d="M19.595 26.277l6.325-5.461-6.325-1.557v7.019z"></path>
</symbol>
<symbol id="icon-Logo" viewBox="0 0 57 32">
<path fill="#afb1b8" style="fill: var(--color1, #afb1b8)" d="M19.413 26.187c0.011 0 0.016 0 0.027 0.005 0.005 0 0.011 0.005 0.021 0.011l0.112 0.112c-0.091 0.091-0.197 0.16-0.325 0.208-0.144 0.053-0.304 0.080-0.464 0.080-0.149 0-0.299-0.021-0.437-0.075-0.123-0.043-0.235-0.112-0.325-0.197-0.096-0.091-0.165-0.197-0.213-0.309-0.053-0.128-0.075-0.261-0.075-0.395s0.027-0.272 0.080-0.395c0.048-0.117 0.128-0.224 0.224-0.309 0.101-0.091 0.219-0.155 0.352-0.203 0.139-0.048 0.293-0.075 0.448-0.069 0.144-0.005 0.283 0.016 0.416 0.064 0.117 0.043 0.224 0.101 0.315 0.176l-0.101 0.123c-0.005 0.005-0.011 0.011-0.021 0.021-0.011 0.005-0.027 0.005-0.043 0.005-0.011 0-0.027-0.005-0.037-0.011l-0.053-0.032-0.075-0.043c-0.032-0.011-0.064-0.027-0.096-0.037-0.043-0.016-0.091-0.021-0.133-0.032-0.059-0.011-0.117-0.011-0.171-0.011-0.112-0.005-0.224 0.016-0.325 0.053-0.096 0.032-0.181 0.080-0.251 0.149-0.075 0.069-0.128 0.149-0.165 0.235-0.043 0.101-0.064 0.208-0.059 0.315-0.005 0.107 0.016 0.213 0.059 0.32 0.032 0.085 0.091 0.165 0.16 0.235 0.069 0.064 0.149 0.112 0.24 0.144 0.096 0.037 0.197 0.053 0.304 0.053 0.059 0 0.117-0.005 0.176-0.011 0.096-0.011 0.187-0.037 0.267-0.085 0.043-0.021 0.080-0.048 0.117-0.080 0.016-0.011 0.032-0.016 0.053-0.016z"></path>
<path fill="#afb1b8" style="fill: var(--color1, #afb1b8)" d="M22.773 25.627c0 0.133-0.027 0.267-0.080 0.395-0.048 0.112-0.123 0.213-0.219 0.304-0.096 0.085-0.213 0.155-0.341 0.197-0.288 0.096-0.603 0.096-0.885 0-0.128-0.043-0.245-0.112-0.341-0.197-0.096-0.091-0.171-0.197-0.224-0.309-0.101-0.256-0.101-0.533 0-0.789 0.053-0.112 0.128-0.219 0.224-0.309 0.096-0.085 0.213-0.149 0.341-0.192 0.283-0.096 0.597-0.096 0.885 0 0.128 0.048 0.245 0.112 0.341 0.203 0.096 0.085 0.171 0.192 0.219 0.304 0.053 0.123 0.080 0.261 0.080 0.395zM22.469 25.627c0-0.107-0.016-0.213-0.059-0.315-0.032-0.091-0.085-0.171-0.155-0.24-0.069-0.064-0.149-0.112-0.245-0.149-0.208-0.069-0.437-0.069-0.64 0-0.096 0.037-0.181 0.085-0.251 0.149-0.069 0.069-0.123 0.149-0.155 0.24-0.075 0.203-0.075 0.427 0 0.629 0.032 0.085 0.085 0.171 0.155 0.235 0.069 0.069 0.155 0.117 0.251 0.149 0.203 0.069 0.432 0.069 0.64 0 0.096-0.032 0.176-0.080 0.245-0.149 0.069-0.064 0.123-0.149 0.155-0.235 0.043-0.101 0.059-0.208 0.059-0.315z"></path>
<path fill="#afb1b8" style="fill: var(--color1, #afb1b8)" d="M25.067 25.957l0.027 0.069c0.016-0.021 0.021-0.048 0.037-0.069 0.011-0.021 0.021-0.048 0.037-0.069l0.741-1.173c0.016-0.021 0.027-0.032 0.043-0.037 0.021-0.005 0.043-0.005 0.059-0.005h0.224v1.909h-0.261v-1.403c0-0.021 0-0.043 0-0.064s0-0.043 0-0.064l-0.747 1.189c-0.011 0.021-0.027 0.032-0.048 0.043-0.016 0.011-0.037 0.016-0.064 0.016h-0.037c-0.027 0-0.048-0.005-0.064-0.016-0.021-0.011-0.037-0.021-0.048-0.043l-0.768-1.195c0 0.021 0 0.043 0 0.069 0 0.021 0 0.043 0 0.059v1.403h-0.251v-1.904h0.219c0.021 0 0.043 0 0.064 0.005 0.016 0.005 0.032 0.021 0.037 0.037l0.763 1.173c0.011 0.021 0.027 0.048 0.037 0.069z"></path>
<path fill="#afb1b8" style="fill: var(--color1, #afb1b8)" d="M27.861 25.861v0.715h-0.293v-1.904h0.651c0.123-0.005 0.245 0.011 0.363 0.043 0.096 0.021 0.181 0.064 0.256 0.117 0.064 0.053 0.112 0.117 0.144 0.187 0.037 0.080 0.053 0.16 0.048 0.245 0.005 0.080-0.016 0.165-0.053 0.24-0.032 0.075-0.085 0.139-0.155 0.192-0.075 0.059-0.165 0.101-0.256 0.128-0.117 0.032-0.235 0.048-0.352 0.043l-0.352-0.005zM27.861 25.659h0.352c0.075 0 0.155-0.011 0.224-0.032 0.059-0.016 0.117-0.043 0.165-0.080 0.043-0.037 0.075-0.080 0.096-0.128 0.027-0.048 0.037-0.101 0.037-0.16 0-0.053-0.005-0.107-0.032-0.155-0.021-0.048-0.053-0.091-0.101-0.128-0.112-0.075-0.251-0.112-0.389-0.107h-0.352v0.789z"></path>
<path fill="#afb1b8" style="fill: var(--color1, #afb1b8)" d="M31.771 26.581h-0.229c-0.027 0-0.048-0.005-0.064-0.021-0.016-0.011-0.032-0.027-0.037-0.043l-0.197-0.459h-0.997l-0.203 0.459c-0.011 0.016-0.021 0.032-0.037 0.043-0.016 0.016-0.043 0.021-0.064 0.021h-0.229l0.869-1.909h0.304l0.885 1.909zM30.331 25.872h0.821l-0.347-0.779c-0.027-0.059-0.048-0.117-0.064-0.176l-0.037 0.096c-0.011 0.032-0.021 0.059-0.032 0.080l-0.341 0.779z"></path>
<path fill="#afb1b8" style="fill: var(--color1, #afb1b8)" d="M33.024 24.677c0.021 0.011 0.032 0.021 0.048 0.037l1.269 1.44c0-0.027 0-0.048 0-0.069s0-0.043 0-0.064v-1.349h0.261v1.909h-0.144c-0.021 0-0.043-0.005-0.064-0.011-0.016-0.011-0.032-0.021-0.043-0.037l-1.275-1.44c0.005 0.027 0.005 0.048 0 0.069 0 0.021 0 0.037 0 0.059v1.36h-0.256v-1.909h0.155c0.016 0 0.032 0 0.048 0.005z"></path>
<path fill="#afb1b8" style="fill: var(--color1, #afb1b8)" d="M36.747 25.819v0.763h-0.293v-0.763l-0.8-1.147h0.256c0.027 0 0.048 0.005 0.064 0.016s0.027 0.027 0.037 0.043l0.507 0.741c0.021 0.032 0.037 0.059 0.053 0.091 0.011 0.027 0.021 0.053 0.032 0.080l0.037-0.085c0.016-0.027 0.032-0.059 0.053-0.085l0.496-0.747c0.011-0.016 0.021-0.027 0.037-0.043 0.016-0.011 0.037-0.016 0.064-0.016h0.261l-0.805 1.152z"></path>
<path fill="#afb1b8" style="fill: var(--color1, #afb1b8)" d="M24.923 21.467c0.123 0.016 0.251 0.027 0.384 0.037 1.957-0.763 3.621-2.011 4.768-3.589 1.152-1.579 1.744-3.413 1.696-5.28l-2.16-1.883c0.437 1.989 0.235 4.043-0.597 5.936-0.827 1.893-2.245 3.547-4.091 4.779z"></path>
<path fill="#afb1b8" style="fill: var(--color1, #afb1b8)" d="M24.149 21.381l0.059 0.011c1.973-1.232 3.483-2.944 4.32-4.923 0.843-1.979 0.981-4.133 0.4-6.181l-3.077-2.677c1.243 2.203 1.744 4.661 1.445 7.099s-1.392 4.752-3.147 6.672z"></path>
<path fill="#afb1b8" style="fill: var(--color1, #afb1b8)" d="M34.592 14.837c-0.523 2.053-1.792 3.904-3.621 5.275-0.533 0.405-1.109 0.763-1.723 1.077 1.488-0.384 2.859-1.056 4.005-1.968 1.141-0.912 2.027-2.043 2.587-3.301l-1.248-1.083z"></path>
<path fill="#afb1b8" style="fill: var(--color1, #afb1b8)" d="M34.101 14.539l-1.776-1.547c-0.032 1.76-0.608 3.483-1.669 4.987-1.061 1.499-2.56 2.731-4.352 3.557h0.011c0.395 0 0.795-0.021 1.189-0.064 1.675-0.592 3.152-1.536 4.304-2.747s1.941-2.651 2.293-4.187z"></path>
<path fill="#afb1b8" style="fill: var(--color1, #afb1b8)" d="M24.405 6.485l-2.123-1.851c-1.893 0.64-3.525 1.76-4.677 3.216s-1.771 3.179-1.781 4.944v0c0.011 1.952 0.768 3.845 2.149 5.381 1.387 1.541 3.323 2.629 5.504 3.104 1.947-2.059 3.083-4.608 3.253-7.269 0.165-2.656-0.651-5.296-2.325-7.525z"></path>
<path fill="#afb1b8" style="fill: var(--color1, #afb1b8)" d="M39.008 14.251c-0.011-2.315-1.072-4.533-2.96-6.171-1.883-1.637-4.437-2.56-7.104-2.571-1.232 0-2.453 0.197-3.6 0.587l12.992 11.285c0.443-0.997 0.672-2.059 0.672-3.131z"></path>
</symbol>
<symbol id="icon-Logo-11" viewBox="0 0 57 32">
<path fill="#afb1b8" style="fill: var(--color1, #afb1b8)" d="M26.654 3.165h0.073c0.135 0 0.281 0.014 0.425 0.026 0.636 0.045 1.268 0.14 1.889 0.285v-1.527c-0.64-0.16-1.292-0.264-1.95-0.311-0.25-0.019-0.515-0.031-0.788-0.038h-0.228c-1.32 0.005-2.634 0.174-3.913 0.505-1.456 0.363-2.854 0.932-4.151 1.689v15.145c1.25-0.679 2.579-1.197 3.957-1.542 1.088-0.278 2.201-0.448 3.322-0.51h0.045c0.188-0.009 0.375-0.015 0.568-0.016v-1.551c-1.457 0.019-2.906 0.211-4.317 0.574-0.522 0.136-1.027 0.282-1.5 0.445l-0.54 0.183v-11.809l0.231-0.111c1.761-0.835 3.665-1.321 5.609-1.431 0.016-0.001 0.032-0.001 0.049 0 0.215-0.011 0.43-0.016 0.642-0.016h0.243c0.112 0.003 0.224 0.005 0.336 0.012zM29.415 4.726c0.339 0.026 0.689 0.038 1.044 0.038 1.388-0.005 2.769-0.182 4.114-0.528 1.378-0.346 2.706-0.865 3.956-1.543v14.875c-1.298 0.756-2.696 1.325-4.153 1.688-1.279 0.329-2.593 0.498-3.913 0.503-1 0.008-1.997-0.11-2.968-0.35v-14.971c0.229 0.053 0.465 0.102 0.706 0.142 0.394 0.066 0.809 0.115 1.214 0.145zM36.985 4.841l-0.54 0.182c-0.497 0.167-0.997 0.316-1.5 0.449-1.465 0.376-2.971 0.57-4.483 0.575-0.352 0-0.676-0.009-0.989-0.030l-0.43-0.028v12.148l0.37 0.033c0.343 0.030 0.696 0.045 1.052 0.045 1.191-0.005 2.377-0.159 3.531-0.457 0.95-0.238 1.874-0.57 2.759-0.991l0.231-0.111v-11.813z"></path>
<path fill="#afb1b8" style="fill: var(--color1, #afb1b8)" d="M19.056 24.112c-0.075-0.080-0.171-0.144-0.272-0.187-0.107-0.043-0.213-0.064-0.325-0.059-0.123 0-0.24 0.021-0.347 0.064-0.101 0.043-0.197 0.101-0.272 0.181-0.075 0.075-0.133 0.171-0.176 0.272-0.043 0.107-0.059 0.219-0.059 0.331v2.027c-0.005 0.144 0.021 0.283 0.080 0.416 0.048 0.101 0.117 0.192 0.203 0.267 0.080 0.069 0.176 0.117 0.277 0.144 0.096 0.032 0.197 0.043 0.299 0.043 0.117 0.005 0.224-0.021 0.331-0.069 0.101-0.043 0.192-0.107 0.267-0.187s0.139-0.171 0.176-0.272c0.043-0.101 0.069-0.213 0.069-0.32v-0.229h-0.533v0.181c0.005 0.064-0.005 0.123-0.027 0.181-0.021 0.043-0.048 0.080-0.080 0.112-0.032 0.027-0.069 0.048-0.112 0.059-0.032 0.011-0.069 0.021-0.107 0.021-0.048 0.005-0.096-0.005-0.139-0.021-0.048-0.021-0.085-0.048-0.112-0.091-0.048-0.080-0.075-0.176-0.069-0.272v-1.883c-0.005-0.107 0.016-0.208 0.064-0.304 0.027-0.043 0.064-0.075 0.112-0.096s0.096-0.032 0.149-0.027c0.043 0 0.091 0.011 0.128 0.027 0.043 0.021 0.080 0.053 0.107 0.091 0.059 0.075 0.091 0.171 0.085 0.267v0.176h0.523v-0.203c0.005-0.123-0.016-0.245-0.064-0.357-0.037-0.107-0.096-0.203-0.176-0.283z"></path>
<path fill="#afb1b8" style="fill: var(--color1, #afb1b8)" d="M22.197 24.085c-0.165-0.139-0.379-0.219-0.597-0.219-0.112 0-0.219 0.016-0.32 0.053s-0.197 0.096-0.277 0.165c-0.085 0.080-0.16 0.176-0.203 0.288-0.053 0.123-0.080 0.256-0.080 0.389v1.941c-0.005 0.139 0.021 0.272 0.080 0.395 0.048 0.107 0.117 0.197 0.203 0.272 0.080 0.075 0.176 0.133 0.277 0.171s0.208 0.059 0.32 0.059c0.107 0 0.213-0.021 0.315-0.059s0.203-0.096 0.283-0.171c0.085-0.075 0.155-0.165 0.203-0.272 0.053-0.123 0.080-0.256 0.075-0.395v-1.941c0.005-0.133-0.021-0.267-0.075-0.389-0.048-0.107-0.117-0.208-0.203-0.288zM21.952 26.704c0.005 0.053 0 0.101-0.021 0.155-0.016 0.048-0.048 0.091-0.085 0.128-0.069 0.059-0.155 0.091-0.245 0.091s-0.181-0.032-0.251-0.091c-0.037-0.037-0.064-0.080-0.085-0.128-0.016-0.053-0.027-0.101-0.021-0.155v-1.941c-0.005-0.053 0.005-0.101 0.021-0.155 0.021-0.048 0.048-0.091 0.085-0.128 0.069-0.059 0.16-0.091 0.251-0.091s0.176 0.032 0.245 0.091c0.037 0.037 0.069 0.080 0.085 0.128 0.021 0.053 0.027 0.101 0.021 0.155v1.941z"></path>
<path fill="#afb1b8" style="fill: var(--color1, #afb1b8)" d="M26.325 27.568v-3.669h-0.507l-0.667 1.941h-0.011l-0.672-1.941h-0.507v3.669h0.528v-2.235h0.005l0.517 1.584h0.261l0.517-1.584h0.011v2.235h0.523z"></path>
<path fill="#afb1b8" style="fill: var(--color1, #afb1b8)" d="M29.307 24.155c-0.080-0.091-0.181-0.16-0.293-0.203-0.123-0.037-0.251-0.059-0.384-0.053h-0.779v3.669h0.523v-1.435h0.272c0.16 0.011 0.325-0.027 0.469-0.096 0.123-0.069 0.219-0.165 0.288-0.283 0.064-0.096 0.101-0.208 0.123-0.32 0.021-0.139 0.027-0.277 0.027-0.416 0.005-0.176-0.011-0.357-0.053-0.528-0.032-0.128-0.101-0.24-0.192-0.336zM29.040 25.275c-0.005 0.064-0.021 0.133-0.048 0.192-0.032 0.053-0.080 0.101-0.139 0.128-0.075 0.032-0.16 0.048-0.245 0.048h-0.24v-1.253h0.272c0.080 0 0.16 0.016 0.235 0.048 0.053 0.032 0.096 0.080 0.123 0.133 0.027 0.069 0.043 0.139 0.048 0.208 0 0.075 0 0.16 0 0.245s0.005 0.171 0 0.251h-0.005z"></path>
<path fill="#afb1b8" style="fill: var(--color1, #afb1b8)" d="M31.787 23.899h-0.427l-0.811 3.669h0.523l0.155-0.789h0.715l0.155 0.789h0.523l-0.832-3.669zM31.307 26.283l0.256-1.333h0.011l0.256 1.333h-0.523z"></path>
<path fill="#afb1b8" style="fill: var(--color1, #afb1b8)" d="M35.168 26.112h-0.005l-0.795-2.213h-0.501v3.669h0.523v-2.208h0.011l0.8 2.208h0.496v-3.669h-0.528v2.213z"></path>
<path fill="#afb1b8" style="fill: var(--color1, #afb1b8)" d="M38.368 23.899l-0.421 1.456h-0.011l-0.421-1.456h-0.555l0.72 2.117v1.552h0.523v-1.552l0.72-2.117h-0.555z"></path>
<path fill="#afb1b8" style="fill: var(--color1, #afb1b8)" d="M17.6 28.608h0.251v0.709h0.171v-0.709h0.251v-0.144h-0.672v0.144z"></path>
<path fill="#afb1b8" style="fill: var(--color1, #afb1b8)" d="M19.717 28.464l-0.331 0.853h0.181l0.075-0.197h0.336l0.075 0.197h0.187l-0.341-0.853h-0.181zM19.691 28.976l0.117-0.315 0.117 0.315h-0.235z"></path>
<path fill="#afb1b8" style="fill: var(--color1, #afb1b8)" d="M21.813 29.003h0.197v0.107c-0.059 0.048-0.128 0.075-0.203 0.075-0.032 0-0.069-0.005-0.101-0.021-0.027-0.011-0.059-0.032-0.080-0.059-0.043-0.069-0.064-0.144-0.064-0.224 0-0.192 0.085-0.288 0.251-0.288 0.043 0 0.085 0.011 0.117 0.032 0.037 0.027 0.064 0.064 0.075 0.107l0.165-0.032c-0.032-0.171-0.155-0.251-0.357-0.251-0.112-0.005-0.219 0.037-0.299 0.107-0.043 0.043-0.080 0.096-0.101 0.155-0.021 0.053-0.027 0.117-0.021 0.176-0.005 0.117 0.032 0.229 0.107 0.32 0.043 0.043 0.091 0.075 0.149 0.096 0.053 0.021 0.117 0.032 0.176 0.027 0.133 0.005 0.261-0.043 0.363-0.133v-0.336h-0.373v0.144z"></path>
<path fill="#afb1b8" style="fill: var(--color1, #afb1b8)" d="M23.957 28.464h-0.176v0.853h0.597v-0.144h-0.421v-0.709z"></path>
<path fill="#afb1b8" style="fill: var(--color1, #afb1b8)" d="M25.595 28.464h0.171v0.853h-0.171v-0.853z"></path>
<path fill="#afb1b8" style="fill: var(--color1, #afb1b8)" d="M27.536 29.035l-0.347-0.571h-0.171v0.853h0.16v-0.56l0.347 0.56h0.171v-0.853h-0.16v0.571z"></path>
<path fill="#afb1b8" style="fill: var(--color1, #afb1b8)" d="M29.136 28.939h0.427v-0.144h-0.427v-0.187h0.459v-0.144h-0.629v0.853h0.645v-0.144h-0.475v-0.235z"></path>
<path fill="#afb1b8" style="fill: var(--color1, #afb1b8)" d="M33.019 28.8h-0.336v-0.336h-0.171v0.853h0.171v-0.373h0.336v0.373h0.171v-0.853h-0.171v0.336z"></path>
<path fill="#afb1b8" style="fill: var(--color1, #afb1b8)" d="M34.629 28.939h0.421v-0.144h-0.421v-0.187h0.459v-0.144h-0.635v0.853h0.651v-0.144h-0.475v-0.235z"></path>
<path fill="#afb1b8" style="fill: var(--color1, #afb1b8)" d="M36.811 28.939c0.149-0.021 0.224-0.101 0.224-0.235 0.005-0.037 0-0.075-0.016-0.107s-0.037-0.064-0.069-0.085c-0.075-0.037-0.165-0.053-0.251-0.048h-0.357v0.853h0.171v-0.357h0.032c0.037-0.005 0.075 0.005 0.107 0.016 0.027 0.016 0.048 0.037 0.059 0.064l0.187 0.272h0.208l-0.107-0.165c-0.043-0.085-0.112-0.155-0.187-0.208zM36.635 28.821h-0.123v-0.213h0.133c0.059-0.005 0.117 0 0.176 0.021 0.011 0.011 0.021 0.021 0.027 0.037s0.011 0.032 0.011 0.048c-0.005 0.021-0.005 0.037-0.016 0.048-0.005 0.016-0.016 0.027-0.032 0.037-0.053 0.021-0.117 0.027-0.176 0.021z"></path>
<path fill="#afb1b8" style="fill: var(--color1, #afb1b8)" d="M38.453 28.939h0.427v-0.144h-0.427v-0.187h0.459v-0.144h-0.629v0.853h0.651v-0.144h-0.48v-0.235z"></path>
</symbol>
<symbol id="icon-Logo1" viewBox="0 0 57 32">
<path fill="#afb1b8" style="fill: var(--color1, #afb1b8)" d="M20.267 3.733l3.738 3.538-6.938-0.004v17.166h18.133v-6.564l3.733 3.534v-17.671h-18.667zM35.036 7.423v10.032l-10.597-10.032h10.597zM31.746 21.923h-11.81v-11.545h0.835v10.764h10.975v0.782zM25.531 27.708c-0.048 0.073-0.072 0.153-0.072 0.241 0 0.16 0.056 0.29 0.168 0.389s0.263 0.148 0.451 0.148q0.211 0 0.378-0.086 0.056-0.029 0.107-0.067l0.107 0.126h0.367l-0.279-0.329q0.164-0.224 0.164-0.574h-0.275c0 0.128-0.026 0.243-0.079 0.348l-0.366-0.432 0.129-0.094c0.091-0.066 0.157-0.132 0.197-0.198s0.060-0.14 0.060-0.219q0-0.090-0.033-0.165t-0.1-0.136c-0.088-0.082-0.201-0.122-0.339-0.122-0.153 0-0.274 0.043-0.365 0.13s-0.135 0.203-0.135 0.352c0 0.061 0.014 0.124 0.043 0.189s0.081 0.144 0.155 0.237c-0.141 0.101-0.235 0.188-0.283 0.262zM29.132 28.317c0.13-0.114 0.205-0.272 0.224-0.474h-0.328c-0.017 0.135-0.059 0.232-0.124 0.29s-0.162 0.087-0.292 0.087c-0.141 0-0.249-0.054-0.323-0.162q-0.109-0.161-0.109-0.469v-0.168c0.002-0.202 0.041-0.355 0.117-0.46s0.188-0.158 0.331-0.158c0.123 0 0.217 0.030 0.28 0.091s0.104 0.158 0.12 0.294h0.328c-0.021-0.207-0.095-0.368-0.223-0.482s-0.296-0.171-0.505-0.171c-0.155 0-0.292 0.037-0.411 0.111s-0.209 0.179-0.272 0.315-0.095 0.294-0.095 0.473v0.177c0.003 0.174 0.035 0.328 0.098 0.46s0.151 0.234 0.266 0.306c0.115 0.071 0.249 0.107 0.4 0.107 0.216 0 0.389-0.056 0.52-0.169zM31.068 28.051c0.064-0.141 0.096-0.304 0.096-0.49v-0.105c-0.001-0.185-0.034-0.347-0.099-0.486q-0.075-0.162-0.199-0.264-0.037-0.031-0.078-0.056c-0.119-0.075-0.256-0.112-0.41-0.112s-0.292 0.038-0.411 0.113q-0.032 0.020-0.062 0.043-0.135 0.107-0.216 0.281c-0.065 0.141-0.098 0.305-0.098 0.49v0.107c0.001 0.181 0.034 0.342 0.099 0.48s0.159 0.246 0.279 0.322c0.121 0.075 0.258 0.112 0.411 0.112 0.155 0 0.292-0.037 0.411-0.112s0.212-0.183 0.276-0.323zM22.725 26.564l-0.436 0.898-0.436-0.898h-0.366l0.637 1.198v0.698h0.331v-0.698l0.635-1.198h-0.365zM23.273 28.46l0.154-0.441h0.734l0.155 0.441h0.344l-0.717-1.896h-0.296l-0.716 1.896h0.342zM26.046 27.287c-0.089-0.11-0.134-0.202-0.134-0.275 0-0.063 0.018-0.116 0.055-0.158s0.085-0.062 0.147-0.062c0.057 0 0.105 0.018 0.142 0.053s0.056 0.077 0.056 0.126c0 0.075-0.027 0.136-0.081 0.184l-0.040 0.033-0.145 0.099zM30.716 26.98c0.080 0.112 0.12 0.273 0.12 0.483v0.099c0 0.214-0.040 0.376-0.119 0.487s-0.19 0.167-0.336 0.167c-0.144 0-0.257-0.057-0.339-0.171s-0.121-0.275-0.121-0.483v-0.109c0.002-0.204 0.043-0.361 0.122-0.473s0.192-0.168 0.335-0.168c0.146 0 0.258 0.056 0.337 0.168zM23.794 26.967l0.275 0.786h-0.549l0.275-0.786zM26.386 28.127c-0.093 0.071-0.193 0.107-0.299 0.107q-0.115 0-0.193-0.054-0.018-0.012-0.034-0.028c-0.056-0.055-0.085-0.126-0.085-0.214 0-0.102 0.052-0.192 0.156-0.271l0.040-0.029 0.414 0.488z"></path>
</symbol>
</defs>
</svg>
